# xmcd
#
# Track frame offsets: 
#        150
#        25949
#        55035
#        75495
#        107542
#        122731
#        142334
#        155535
#        181172
#        205867
#        223704
#        236344
#        258782
#        275463
#        296046
#
# Disc length: 4147 seconds
#
# Revision: 1
# Processed by: cddbd v1.5.2PL0 Copyright (c) Steve Scherf et al.
# Submitted via: ExactAudioCopy v1.1
#
DISCID=d310310f
DTITLE=Various Artist - Ultimate Smooth Jazz
DYEAR=2009
DGENRE=Jazz
TTITLE0=Bob James - Angela (Theme from 'Taxi')
TTITLE1=Richard 'Groove' Holmes - Moon River
TTITLE2=2Play - Just the Two of Us
TTITLE3=Grant Green - Samba de Orpheus
TTITLE4=Col Tjader - Walk On By
TTITLE5=Kymaera - Breezin'
TTITLE6=Lena Horne and Gábor Szabó - Everybody's Talking
TTITLE7=Jazz Urbaine -  Street Life
TTITLE8=Richard Tee - Virgina Sunday
TTITLE9=Astrud Gilberto - Hold Me
TTITLE10=Grady Tate - Sack Full of Dreams
TTITLE11=The Breacon Brothers - Cantaloupe Island
TTITLE12=Kymaera - Ain't No Sunshine
TTITLE13=EJQ - Easy Dancing
TTITLE14=Stan Getz - Always
EXTD=YEAR: 2009
EXTT0=
EXTT1=
EXTT2=
EXTT3=
EXTT4=
EXTT5=
EXTT6=
EXTT7=
EXTT8=
EXTT9=
EXTT10=
EXTT11=
EXTT12=
EXTT13=
EXTT14=
PLAYORDER=
